<svg width="15" height="19" viewBox="0 0 15 19" fill="none" xmlns="http://www.w3.org/2000/svg">
<path d="M2.07984 1.99336C3.49865 0.687445 5.20767 0.0344849 7.2069 0.0344849C9.20613 0.0344849 10.899 0.687445 12.2856 1.99336C13.7044 3.2696 14.4138 4.8278 14.4138 6.66796C14.4138 7.58804 14.1558 8.64168 13.6399 9.82888C13.1562 11.0161 12.5597 12.1291 11.8503 13.1679C11.1409 14.2067 10.4315 15.1861 9.72206 16.1062C9.0449 16.9966 8.46448 17.7089 7.98079 18.2432L7.83371 18.387C7.49004 18.7231 6.93614 18.711 6.59954 18.3678C6.54608 18.3133 6.49057 18.2569 6.433 18.1986C6.11055 17.8425 5.53012 17.1598 4.69174 16.1507C3.85335 15.1119 3.1117 14.1176 2.46679 13.1679C1.85412 12.1884 1.28982 11.0903 0.773895 9.8734C0.257965 8.65652 0 7.58804 0 6.66796C0 4.8278 0.693281 3.2696 2.07984 1.99336Z" fill="#2E2E2E"/>
</svg>
