<svg width="16" height="16" viewBox="0 0 16 16" fill="none" xmlns="http://www.w3.org/2000/svg">
<path d="M8 1.25C11.7125 1.25 14.75 4.2875 14.75 8C14.75 11.7125 11.7125 14.75 8 14.75C4.2875 14.75 1.25 11.7125 1.25 8C1.25 4.2875 4.2875 1.25 8 1.25ZM8 0.125C3.66875 0.125 0.125 3.66875 0.125 8C0.125 12.3313 3.66875 15.875 8 15.875C12.3313 15.875 15.875 12.3313 15.875 8C15.875 3.66875 12.3313 0.125 8 0.125Z" fill="#2E2E2E"/>
<path d="M12.5 7.4375H8.5625V3.5H7.4375V7.4375H3.5V8.5625H7.4375V12.5H8.5625V8.5625H12.5V7.4375Z" fill="#2E2E2E"/>
</svg>
